<?xml version="1.0" encoding="utf-8"?>
<!-- Generator: Adobe Illustrator 27.7.0, SVG Export Plug-In . SVG Version: 6.00 Build 0)  -->
<svg version="1.1" id="Layer_1" xmlns="http://www.w3.org/2000/svg" xmlns:xlink="http://www.w3.org/1999/xlink" x="0px" y="0px"
	 viewBox="0 0 96 96" style="enable-background:new 0 0 96 96;" xml:space="preserve">
<style type="text/css">
	.st0{fill:#FC3F1D;}
	.st1{fill:#FFFFFF;}
	.st2{fill:#898A8C;}
	.st3{fill:#4F5053;}
	.st4{fill:#9FA8DA;}
	.st5{fill:#707DC8;}
</style>
<g>
	<path class="st0" d="M47.9,0h0.1c26.5,0,48,21.5,48,48l0,0c0,26.5-21.5,48-48,48h-0.1c-26.5,0-48-21.5-48-48l0,0
		C-0.1,21.5,21.4,0,47.9,0z"/>
	<path class="st1" d="M54.8,76.8h10V19.2H50.2c-14.7,0-22.4,7.5-22.4,18.6c0,8.9,4.2,14.1,11.8,19.5L26.5,76.8h10.9L52,55.1
		l-5.1-3.4c-6.1-4.1-9.1-7.4-9.1-14.3c0-6.1,4.3-10.3,12.5-10.3h4.5V76.8z"/>
</g>
<g>
	<path class="st1" d="M37.6,50.4v29.1L66.7,94C66.7,94,37.6,50.4,37.6,50.4z"/>
	<path class="st2" d="M50.4,44l29.1,43.6L66.7,94L37.6,50.4C37.6,50.4,50.4,44,50.4,44z"/>
	<path class="st1" d="M81.3,50.4L62.8,62.7l14.8,22.2l3.6,1.8C81.3,86.7,81.3,50.4,81.3,50.4z"/>
	<path class="st3" d="M81.3,50.4v36.4L94,80.4V44C94,44,81.3,50.4,81.3,50.4z"/>
</g>
<g>
	<path class="st1" d="M37.6,50.4v29.1L66.7,94C66.7,94,37.6,50.4,37.6,50.4z"/>
	<path class="st4" d="M50.4,44l29.1,43.6L66.7,94L37.6,50.4C37.6,50.4,50.4,44,50.4,44z"/>
	<path class="st1" d="M81.3,50.4L62.8,62.7l14.8,22.2l3.6,1.8C81.3,86.7,81.3,50.4,81.3,50.4z"/>
	<path class="st5" d="M81.3,50.4v36.4L94,80.4V44C94,44,81.3,50.4,81.3,50.4z"/>
</g>
<g>
	<path d="M94,44v36.4l-12.7,6.4v0l-3.6-1.8l1.8,2.7L66.7,94L37.6,79.5V50.4L50.4,44l12.4,18.7l18.5-12.3L94,44 M50.4,43
		c-0.2,0-0.3,0-0.4,0.1l-12.7,6.4c-0.3,0.2-0.6,0.5-0.6,0.9v29.1c0,0.4,0.2,0.7,0.6,0.9l29.1,14.5c0.1,0.1,0.3,0.1,0.4,0.1
		s0.3,0,0.4-0.1l12.7-6.4c0.3-0.1,0.4-0.4,0.5-0.6c0-0.2,0-0.3,0-0.5l0.4,0.2c0.1,0.1,0.3,0.1,0.4,0.1c0.2,0,0.3,0,0.4-0.1l12.7-6.4
		c0.3-0.2,0.6-0.5,0.6-0.9V44c0-0.3-0.2-0.7-0.5-0.9C94.4,43.1,94.2,43,94,43c-0.2,0-0.3,0-0.4,0.1l-12.7,6.4c0,0-0.1,0-0.1,0.1
		L63.1,61.3L51.2,43.4C51,43.2,50.7,43,50.4,43L50.4,43z"/>
</g>
</svg>
